<svg width="24" height="24" viewBox="0 0 24 24" fill="none" xmlns="http://www.w3.org/2000/svg">
<path d="M23.2024 11.369L21.5714 10.7738C21.4286 10.7024 21.3095 10.6071 21.2143 10.4881C21.127 10.3611 21.0714 10.2222 21.0476 10.0714C21.0159 9.92857 21.0159 9.78571 21.0476 9.64286C21.0794 9.5 21.1389 9.37302 21.2262 9.2619L22.4286 8.0119C22.5794 7.86111 22.6706 7.68254 22.7024 7.47619C22.7341 7.2619 22.7024 7.05952 22.6071 6.86905C21.8452 5.36905 20.8175 4.07936 19.5238 3C19.3571 2.86508 19.1667 2.78968 18.9524 2.77381C18.746 2.75794 18.5516 2.80555 18.369 2.91667L17.0119 3.72619C16.869 3.80555 16.7143 3.84524 16.5476 3.84524C16.381 3.8373 16.2262 3.79365 16.0833 3.71428C15.9325 3.65079 15.8056 3.55555 15.7024 3.42857C15.5992 3.30159 15.5317 3.15873 15.5 3L15.2857 1.42857C15.2619 1.21428 15.1746 1.03174 15.0238 0.88095C14.881 0.722221 14.7063 0.619047 14.5 0.571428C12.8492 0.230157 11.2024 0.230157 9.55952 0.571428C9.35318 0.619047 9.1746 0.722221 9.02381 0.88095C8.88095 1.03174 8.79762 1.21428 8.77381 1.42857L8.57143 2.95238C8.53175 3.11905 8.45635 3.26984 8.34524 3.40476C8.24206 3.53174 8.11111 3.62698 7.95238 3.69047C7.80159 3.77778 7.63889 3.8254 7.46429 3.83333C7.29762 3.83333 7.13889 3.79365 6.9881 3.71428L5.66667 2.91667C5.48413 2.81349 5.28571 2.76984 5.07143 2.78571C4.86508 2.80159 4.67857 2.87698 4.51191 3.0119C3.21825 4.08333 2.19048 5.36905 1.42857 6.86905C1.33333 7.05952 1.30159 7.2619 1.33333 7.47619C1.36508 7.68254 1.45635 7.86111 1.60714 8.0119L2.77381 9.23809C2.86905 9.34921 2.93254 9.48016 2.96429 9.63095C3.00397 9.77381 3.00397 9.91667 2.96429 10.0595C2.94048 10.2183 2.88095 10.3611 2.78571 10.4881C2.69048 10.6151 2.57143 10.7103 2.42857 10.7738L0.809524 11.381C0.611111 11.4524 0.452381 11.5754 0.333333 11.75C0.214286 11.9246 0.154762 12.119 0.154762 12.3333C0.186508 14.0159 0.555556 15.623 1.2619 17.1548C1.34921 17.3452 1.48413 17.496 1.66667 17.6071C1.84921 17.7103 2.04762 17.75 2.2619 17.7262L4.19048 17.5476C4.31746 17.5476 4.43651 17.5794 4.54762 17.6429C4.66667 17.6984 4.76587 17.7778 4.84524 17.881C4.93254 17.9762 4.99206 18.0873 5.02381 18.2143C5.06349 18.3413 5.06746 18.4722 5.03571 18.6071L4.42857 20.4286C4.36508 20.627 4.36508 20.8294 4.42857 21.0357C4.49206 21.2341 4.60714 21.4008 4.77381 21.5357C5.44048 22.0357 6.14683 22.4683 6.89286 22.8333C7.63889 23.1905 8.41667 23.4683 9.22619 23.6667C9.48016 23.7302 9.71825 23.7024 9.94048 23.5833C10.0913 23.504 10.2143 23.3929 10.3095 23.25L11.4405 21.5119C11.5992 21.3532 11.7937 21.2778 12.0238 21.2857C12.254 21.2857 12.4444 21.369 12.5952 21.5357L13.7262 23.25C13.8452 23.4246 14 23.5516 14.1905 23.631C14.3889 23.7103 14.5913 23.7222 14.7976 23.6667C16.4325 23.2619 17.9206 22.5476 19.2619 21.5238C19.4286 21.3968 19.5437 21.2341 19.6071 21.0357C19.6706 20.8294 19.6667 20.623 19.5952 20.4167L18.9881 18.5595C18.9563 18.4325 18.9563 18.3095 18.9881 18.1905C19.0198 18.0635 19.0754 17.9524 19.1548 17.8571C19.2341 17.7619 19.3294 17.6865 19.4405 17.631C19.5516 17.5754 19.6706 17.5476 19.7976 17.5476L21.7381 17.7262C21.9524 17.75 22.1508 17.7103 22.3333 17.6071C22.5159 17.496 22.6508 17.3452 22.7381 17.1548C23.4444 15.623 23.8135 14.0119 23.8452 12.3214C23.8452 12.1151 23.7857 11.9246 23.6667 11.75C23.5556 11.5754 23.4008 11.4484 23.2024 11.369ZM21.5952 14.3452C21.5 14.7976 21.369 15.2381 21.2024 15.6667L19.9881 15.5595C19.5278 15.5278 19.0833 15.6071 18.6548 15.7976C18.2341 15.9881 17.881 16.2659 17.5952 16.631C17.3095 16.9881 17.119 17.3929 17.0238 17.8452C16.9365 18.2976 16.9564 18.746 17.0833 19.1905L17.4643 20.3452C16.6944 20.8611 15.873 21.2619 15 21.5476L14.2738 20.4405C14.0198 20.0675 13.6905 19.7778 13.2857 19.5714C12.881 19.3571 12.4524 19.254 12 19.2619C11.5556 19.254 11.1349 19.3532 10.7381 19.5595C10.3413 19.7659 10.0198 20.0516 9.77381 20.4167L9.03571 21.5476C8.15476 21.2619 7.32937 20.8651 6.55952 20.3571L6.92857 19.2262C7.06349 18.7817 7.08333 18.3294 6.9881 17.869C6.90079 17.4087 6.71032 16.996 6.41667 16.631C6.12302 16.2659 5.76191 15.9921 5.33333 15.8095C4.9127 15.619 4.46825 15.5357 4 15.5595L2.80952 15.6667C2.64286 15.2381 2.50794 14.8016 2.40476 14.3571C2.30159 13.9048 2.23016 13.4524 2.19048 13L3.11905 12.6548C3.57143 12.4643 3.95238 12.1825 4.2619 11.8095C4.57937 11.4365 4.78968 11.0119 4.89286 10.5357C5.00397 10.0595 5 9.5873 4.88095 9.11905C4.76191 8.64286 4.53968 8.21825 4.21429 7.84524L3.54762 7.16667C4.02381 6.37301 4.59524 5.65476 5.26191 5.0119L5.95238 5.42857C6.38889 5.68254 6.86111 5.81746 7.36905 5.83333C7.88492 5.84127 8.36905 5.73016 8.82143 5.5C9.28175 5.28571 9.6627 4.97619 9.96429 4.57143C10.2738 4.16667 10.4683 3.71428 10.5476 3.21428L10.6548 2.41667C11.5675 2.28968 12.4841 2.28968 13.4048 2.41667L13.5119 3.2619C13.5992 3.75397 13.7937 4.19841 14.0952 4.59524C14.3968 4.99206 14.7698 5.30159 15.2143 5.52381C15.6667 5.73809 16.1429 5.8373 16.6429 5.82143C17.1429 5.80555 17.6111 5.67857 18.0476 5.44048L18.7738 5.0119C19.4405 5.64682 20.0119 6.36111 20.4881 7.15476L19.7857 7.86905C19.4683 8.23413 19.246 8.65079 19.119 9.11905C19 9.5873 18.9921 10.0595 19.0952 10.5357C19.2064 11.0119 19.4167 11.4365 19.7262 11.8095C20.0437 12.1746 20.4246 12.4524 20.869 12.6429L21.8214 12.9881C21.7738 13.4563 21.6984 13.9087 21.5952 14.3452ZM12 7.0119C11.0952 7.0119 10.254 7.23809 9.47619 7.69048C8.72222 8.13492 8.12302 8.73413 7.67857 9.48809C7.22619 10.2659 7 11.1071 7 12.0119C7 12.9167 7.22619 13.7579 7.67857 14.5357C8.12302 15.2897 8.72222 15.8889 9.47619 16.3333C10.254 16.7857 11.0952 17.0119 12 17.0119C12.9048 17.0119 13.746 16.7857 14.5238 16.3333C15.2778 15.8889 15.877 15.2897 16.3214 14.5357C16.7738 13.7579 17 12.9167 17 12.0119C17 11.1071 16.7738 10.2659 16.3214 9.48809C15.877 8.73413 15.2778 8.13889 14.5238 7.70238C13.754 7.24206 12.9167 7.0119 12.0119 7.0119H12ZM12 15.0119C11.4603 15.0119 10.9603 14.877 10.5 14.6071C10.0397 14.3373 9.6746 13.9722 9.40476 13.5119C9.13492 13.0516 9 12.5516 9 12.0119C9 11.4722 9.13492 10.9722 9.40476 10.5119C9.6746 10.0516 10.0397 9.68651 10.5 9.41667C10.9603 9.14682 11.4603 9.0119 12 9.0119C12.5476 9.0119 13.0476 9.14682 13.5 9.41667C13.9603 9.68651 14.3254 10.0516 14.5952 10.5119C14.8651 10.9722 15 11.4722 15 12.0119C15 12.5516 14.8651 13.0516 14.5952 13.5119C14.3333 13.9722 13.9722 14.3373 13.5119 14.6071C13.0516 14.877 12.5516 15.0119 12.0119 15.0119H12Z" fill="white"/>
</svg>
