<svg width="24" height="24" viewBox="0 0 24 24" fill="none" xmlns="http://www.w3.org/2000/svg">
<path d="M13.5 1.51501C13.0439 1.2517 12.5266 1.11308 12 1.11308C11.4734 1.11308 10.9561 1.2517 10.5 1.51501L3 5.84501C2.69597 6.02054 2.4435 6.27301 2.26796 6.57704C2.09243 6.88106 2.00001 7.22594 2 7.57701V21C2 21.2652 2.10536 21.5196 2.29289 21.7071C2.48043 21.8947 2.73478 22 3 22H9C9.26522 22 9.51957 21.8947 9.70711 21.7071C9.89464 21.5196 10 21.2652 10 21V15H14V21C14 21.2652 14.1054 21.5196 14.2929 21.7071C14.4804 21.8947 14.7348 22 15 22H21C21.2652 22 21.5196 21.8947 21.7071 21.7071C21.8946 21.5196 22 21.2652 22 21V7.57701C22 7.22594 21.9076 6.88106 21.732 6.57704C21.5565 6.27301 21.304 6.02054 21 5.84501L13.5 1.51501Z" fill="white"/>
</svg>
