<svg width="14" height="19" viewBox="0 0 14 19" fill="none" xmlns="http://www.w3.org/2000/svg">
<path d="M0.702381 0.0119033C0.503969 0.0119033 0.337302 0.0793638 0.202381 0.214285C0.0674605 0.349205 2.38419e-07 0.515872 2.38419e-07 0.714284V17.3095C2.38419e-07 17.5079 0.0674605 17.6746 0.202381 17.8095C0.337302 17.9444 0.503969 18.0119 0.702381 18.0119H3.29762C3.49603 18.0119 3.6627 17.9444 3.79762 17.8095C3.93254 17.6746 4 17.5079 4 17.3095V0.714284C4 0.515872 3.93254 0.349205 3.79762 0.214285C3.6627 0.0793638 3.49603 0.0119033 3.29762 0.0119033H0.702381ZM10.7024 0.0119033C10.504 0.0119033 10.3373 0.0793638 10.2024 0.214285C10.0675 0.349205 10 0.515872 10 0.714284V17.3095C10 17.5079 10.0675 17.6746 10.2024 17.8095C10.3373 17.9444 10.504 18.0119 10.7024 18.0119H13.2976C13.496 18.0119 13.6627 17.9444 13.7976 17.8095C13.9325 17.6746 14 17.5079 14 17.3095V0.714284C14 0.515872 13.9325 0.349205 13.7976 0.214285C13.6627 0.0793638 13.496 0.0119033 13.2976 0.0119033H10.7024Z" fill="white"/>
</svg>
