<svg width="22" height="23" viewBox="0 0 22 23" fill="none" xmlns="http://www.w3.org/2000/svg">
<path d="M20 11.0119C20 9.78968 19.7659 8.62302 19.2976 7.5119C18.8373 6.43254 18.1905 5.48016 17.3571 4.65476C16.5317 3.82143 15.5794 3.1746 14.5 2.71428C13.3889 2.24603 12.2222 2.0119 11 2.0119C10.7222 2.0119 10.4841 1.91667 10.2857 1.72619C10.0952 1.52778 10 1.28968 10 1.0119C10 0.734125 10.0952 0.499999 10.2857 0.309523C10.4841 0.11111 10.7222 0.0119038 11 0.0119038C12.4921 0.0119038 13.9206 0.301586 15.2857 0.880951C16.6032 1.43651 17.7659 2.22222 18.7738 3.23809C19.7897 4.25397 20.5754 5.41667 21.131 6.72619C21.7103 8.09127 22 9.51984 22 11.0119C22 12.504 21.7103 13.9325 21.131 15.2976C20.5754 16.6071 19.7897 17.7698 18.7738 18.7857C17.7659 19.8016 16.6032 20.5873 15.2857 21.1429C13.9206 21.7222 12.4921 22.0119 11 22.0119C9.50794 22.0119 8.07937 21.7222 6.71429 21.1429C5.40476 20.5873 4.24206 19.8016 3.22619 18.7857C2.21032 17.7698 1.4246 16.6071 0.869048 15.2976C0.289683 13.9325 2.98023e-08 12.504 2.98023e-08 11.0119C2.98023e-08 10.7341 0.0952381 10.5 0.285714 10.3095C0.484127 10.1111 0.722222 10.0119 1 10.0119C1.27778 10.0119 1.5119 10.1111 1.70238 10.3095C1.90079 10.5 2 10.7341 2 11.0119C2 12.0754 2.17857 13.1032 2.53571 14.0952C2.90079 15.0873 3.42064 15.9881 4.09524 16.7976C4.77778 17.6071 5.57937 18.2778 6.5 18.8095C7.42064 19.3413 8.40079 19.6984 9.44048 19.881C10.4802 20.0556 11.5198 20.0556 12.5595 19.881C13.5992 19.6984 14.5794 19.3413 15.5 18.8095C16.4206 18.2778 17.2183 17.6071 17.8929 16.7976C18.5754 15.9881 19.0952 15.0873 19.4524 14.0952C19.8175 13.1032 20 12.0754 20 11.0119ZM6.58333 3.42857C6.38492 3.54762 6.1746 3.60714 5.95238 3.60714C5.73016 3.60714 5.51984 3.55159 5.32143 3.44047C5.13095 3.32936 4.98016 3.17857 4.86905 2.98809C4.75794 2.78968 4.70238 2.57936 4.70238 2.35714C4.70238 2.12698 4.75794 1.91667 4.86905 1.72619C4.98016 1.53571 5.13095 1.38492 5.32143 1.27381C5.51984 1.1627 5.73016 1.10714 5.95238 1.10714C6.1746 1.10714 6.38095 1.1627 6.57143 1.27381C6.76191 1.38492 6.9127 1.53968 7.02381 1.73809C7.14286 1.92857 7.20238 2.13492 7.20238 2.35714C7.20238 2.57936 7.14683 2.78571 7.03572 2.97619C6.9246 3.16667 6.77381 3.31746 6.58333 3.42857ZM10.0357 5.0119C10.0357 4.73413 10.131 4.5 10.3214 4.30952C10.5198 4.11111 10.7579 4.0119 11.0357 4.0119C11.3135 4.0119 11.5476 4.11111 11.7381 4.30952C11.9365 4.5 12.0357 4.73413 12.0357 5.0119V10.0119H15C15.2778 10.0119 15.5119 10.1111 15.7024 10.3095C15.9008 10.5 16 10.7341 16 11.0119C16 11.2897 15.9008 11.5278 15.7024 11.7262C15.5119 11.9167 15.2778 12.0119 15 12.0119H10.0357V5.0119ZM1.66667 7.09524C1.86508 7.20635 2.0754 7.26587 2.29762 7.27381C2.51984 7.27381 2.72619 7.21825 2.91667 7.10714C3.11508 6.98809 3.26984 6.83333 3.38095 6.64286C3.49206 6.44444 3.54762 6.23413 3.54762 6.0119C3.54762 5.78968 3.49206 5.58333 3.38095 5.39286C3.26984 5.19444 3.11508 5.03968 2.91667 4.92857C2.72619 4.81746 2.51984 4.76587 2.29762 4.77381C2.0754 4.77381 1.86905 4.82936 1.67857 4.94047C1.4881 5.04365 1.33333 5.19444 1.21429 5.39286C1.10317 5.58333 1.04762 5.78968 1.04762 6.0119C1.04762 6.23413 1.10317 6.44444 1.21429 6.64286C1.3254 6.83333 1.47619 6.98413 1.66667 7.09524Z" fill="white"/>
</svg>
