<svg width="24" height="24" viewBox="0 0 24 24" fill="none" xmlns="http://www.w3.org/2000/svg">
<path d="M1.12598 10.558C1.12598 5.41802 5.35198 1.27802 10.533 1.27802C15.713 1.27802 19.94 5.41802 19.94 10.558C19.942 12.6787 19.2079 14.7343 17.863 16.374L22.207 20.718C22.3891 20.9066 22.4899 21.1592 22.4877 21.4214C22.4854 21.6836 22.3802 21.9344 22.1948 22.1198C22.0094 22.3052 21.7586 22.4104 21.4964 22.4127C21.2342 22.415 20.9816 22.3142 20.793 22.132L16.44 17.779C14.7615 19.1154 12.6785 19.8412 10.533 19.837C5.35298 19.837 1.12598 15.698 1.12598 10.558ZM10.533 3.27802C6.42798 3.27802 3.12598 6.55201 3.12598 10.558C3.12598 14.564 6.42798 17.837 10.533 17.837C14.638 17.837 17.94 14.564 17.94 10.557C17.94 6.55202 14.638 3.27802 10.533 3.27802Z" fill="white"/>
</svg>
