<svg width="24" height="24" viewBox="0 0 24 24" fill="none" xmlns="http://www.w3.org/2000/svg">
<path d="M12 2.0119C11 2.0119 10.0754 2.2619 9.22619 2.7619C8.39286 3.24603 7.73413 3.90476 7.25 4.73809C6.75 5.5873 6.5 6.5119 6.5 7.5119V13.3929L4.41667 17.0119H19.5833L17.5 13.3929V7.5119C17.5 6.5119 17.25 5.5873 16.75 4.73809C16.2659 3.90476 15.6071 3.24603 14.7738 2.7619C13.9246 2.2619 13 2.0119 12 2.0119ZM4.5 7.5119C4.5 6.49603 4.69841 5.52381 5.09524 4.59524C5.46825 3.69841 6 2.90476 6.69048 2.21428C7.38889 1.51587 8.18651 0.980157 9.08333 0.607141C10.0119 0.210316 10.9841 0.0119038 12 0.0119038C13.0159 0.0119038 13.9881 0.210316 14.9167 0.607141C15.8135 0.980157 16.6071 1.51587 17.2976 2.21428C17.996 2.90476 18.5317 3.69841 18.9048 4.59524C19.3016 5.52381 19.5 6.49603 19.5 7.5119V12.8571L23.0476 19.0119H15.4643C15.5595 19.6865 15.4643 20.3373 15.1786 20.9643C14.9008 21.5833 14.4722 22.0794 13.8929 22.4524C13.3135 22.8254 12.6825 23.0119 12 23.0119C11.3175 23.0119 10.6865 22.8254 10.1071 22.4524C9.52778 22.0794 9.09524 21.5833 8.80952 20.9643C8.53175 20.3373 8.44048 19.6865 8.53571 19.0119H0.952381L4.5 12.8571V7.5119ZM10.5833 19.0119C10.4722 19.3214 10.4643 19.6349 10.5595 19.9524C10.6627 20.2619 10.8452 20.5159 11.1071 20.7143C11.369 20.9127 11.6667 21.0119 12 21.0119C12.3333 21.0119 12.631 20.9127 12.8929 20.7143C13.1548 20.5159 13.3333 20.2619 13.4286 19.9524C13.5317 19.6349 13.5278 19.3214 13.4167 19.0119H10.5833Z" fill="white"/>
</svg>
