<svg width="24" height="24" viewBox="0 0 24 24" fill="#fff" xmlns="http://www.w3.org/2000/svg">
<path d="M16.5 18.131C17.0397 18.131 17.5397 18 18 17.7381C18.4603 17.4683 18.8254 17.1032 19.0952 16.6429C19.3651 16.1825 19.5 15.6825 19.5 15.1429C19.5 14.5952 19.3651 14.0913 19.0952 13.631C18.8254 13.1706 18.4603 12.8056 18 12.5357C17.5397 12.2659 17.0397 12.131 16.5 12.131C15.9603 12.131 15.4603 12.2659 15 12.5357C14.5397 12.8056 14.1746 13.1706 13.9048 13.631C13.6349 14.0913 13.5 14.5952 13.5 15.1429C13.5 15.6825 13.6349 16.1825 13.9048 16.6429C14.1746 17.1032 14.5397 17.4683 15 17.7381C15.4603 18 15.9603 18.131 16.5 18.131ZM9 3.13095C9 2.6627 9.11508 2.22619 9.34524 1.82143C9.58333 1.41667 9.90476 1.09921 10.3095 0.869046C10.7143 0.630951 11.1548 0.511903 11.631 0.511903H21.381C21.8492 0.511903 22.2857 0.630951 22.6905 0.869046C23.0952 1.09921 23.4127 1.41667 23.6429 1.82143C23.881 2.22619 24 2.66667 24 3.14286V20.381C24 20.8571 23.881 21.2976 23.6429 21.7024C23.4127 22.1071 23.0952 22.4286 22.6905 22.6667C22.2857 22.8968 21.8452 23.0119 21.369 23.0119H11.631C11.1548 23.0119 10.7143 22.8968 10.3095 22.6667C9.90476 22.4286 9.58333 22.1071 9.34524 21.7024C9.11508 21.2976 9 20.8611 9 20.3929V3.13095ZM11.631 2.7619C11.5198 2.7619 11.4286 2.79762 11.3571 2.86905C11.2857 2.94048 11.25 3.02778 11.25 3.13095V20.381C11.25 20.4921 11.2857 20.5833 11.3571 20.6548C11.4286 20.7262 11.5198 20.7619 11.631 20.7619H21.381C21.4841 20.7619 21.5714 20.7262 21.6429 20.6548C21.7143 20.5833 21.75 20.496 21.75 20.3929V3.13095C21.75 3.02778 21.7143 2.94048 21.6429 2.86905C21.5714 2.79762 21.4841 2.7619 21.381 2.7619H11.631ZM2.63095 2.7619C2.51984 2.7619 2.42857 2.79762 2.35714 2.86905C2.28571 2.94048 2.25 3.02778 2.25 3.13095V20.381C2.25 20.4921 2.28571 20.5833 2.35714 20.6548C2.42857 20.7262 2.51587 20.7619 2.61905 20.7619H6.19048V23.0119H2.63095C2.15476 23.0119 1.71429 22.8968 1.30952 22.6667C0.904762 22.4286 0.583333 22.1071 0.345238 21.7024C0.115079 21.2976 0 20.8611 0 20.3929V3.13095C0 2.6627 0.115079 2.22619 0.345238 1.82143C0.583333 1.41667 0.904762 1.09921 1.30952 0.869046C1.71429 0.630951 2.15476 0.511903 2.63095 0.511903H6.19048V2.7619H2.63095ZM18 7.2619C18 7.53174 17.9325 7.78174 17.7976 8.0119C17.6627 8.24206 17.4802 8.4246 17.25 8.55952C17.0198 8.69444 16.7698 8.7619 16.5 8.7619C16.2302 8.7619 15.9802 8.69444 15.75 8.55952C15.5198 8.4246 15.3373 8.24206 15.2024 8.0119C15.0675 7.78174 15 7.53174 15 7.2619C15 6.99206 15.0675 6.74206 15.2024 6.5119C15.3373 6.28174 15.5198 6.09921 15.75 5.96428C15.9802 5.82936 16.2302 5.7619 16.5 5.7619C16.7698 5.7619 17.0198 5.82936 17.25 5.96428C17.4802 6.09921 17.6627 6.28174 17.7976 6.5119C17.9325 6.74206 18 6.99206 18 7.2619Z" fill="#fff"/>
</svg>
